# xmcd
#
# Track frame offsets:
#	150
#	11998
#	25401
#	40312
#	54210
#	67944
#	88847
#	103918
#	118916
#	137974
#	148159
#	166093
#	180508
#	194412
#
# Disc length: 2768 seconds
#
# Revision: 0
# Processed by: cddbd v1.5.2PL0 Copyright (c) Steve Scherf et al.
# Submitted via: audiograbber 1.83.01
#
DISCID=cb0ace0e
DTITLE=Patrick Feeney - If This Ain't Love
DYEAR=1900
DGENRE=
TTITLE0=If This Ain't Love
TTITLE1=Back To Old Ireland
TTITLE2=Knock At My Window
TTITLE3=Teddy Bear
TTITLE4=Love Thee Dearest
TTITLE5=Cottage By The Sea
TTITLE6=Culfadda
TTITLE7=Lord I Need Somebody Bad
TTITLE8=Island To An Island
TTITLE9=Beautiful You
TTITLE10=Just Out Of Reach
TTITLE11=My Dear Old Mother
TTITLE12=Lay Down Beside Me
TTITLE13=In Our Father's Time
EXTD=
EXTT0=
EXTT1=
EXTT2=
EXTT3=
EXTT4=
EXTT5=
EXTT6=
EXTT7=
EXTT8=
EXTT9=
EXTT10=
EXTT11=
EXTT12=
EXTT13=
PLAYORDER=
